<svg width="199" height="55" viewBox="0 0 199 55" fill="none" xmlns="http://www.w3.org/2000/svg">
    <path d="M75.1 38.27C73.76 38.27 72.59 37.96 71.59 37.34C70.59 36.7 69.81 35.8 69.25 34.64C68.71 33.48 68.44 32.09 68.44 30.47C68.44 28.83 68.71 27.43 69.25 26.27C69.81 25.11 70.59 24.22 71.59 23.6C72.59 22.98 73.76 22.67 75.1 22.67C76.46 22.67 77.63 23.02 78.61 23.72C79.61 24.4 80.27 25.33 80.59 26.51H80.23L80.56 22.94H82.9C82.84 23.52 82.78 24.11 82.72 24.71C82.68 25.29 82.66 25.86 82.66 26.42V38H80.23V34.46H80.56C80.24 35.64 79.58 36.57 78.58 37.25C77.58 37.93 76.42 38.27 75.1 38.27ZM75.58 36.29C77.02 36.29 78.16 35.8 79 34.82C79.84 33.82 80.26 32.37 80.26 30.47C80.26 28.55 79.84 27.1 79 26.12C78.16 25.12 77.02 24.62 75.58 24.62C74.16 24.62 73.02 25.12 72.16 26.12C71.32 27.1 70.9 28.55 70.9 30.47C70.9 32.37 71.32 33.82 72.16 34.82C73.02 35.8 74.16 36.29 75.58 36.29ZM92.6683 38.27C90.8883 38.27 89.5383 37.78 88.6183 36.8C87.7183 35.82 87.2683 34.32 87.2683 32.3V22.94H89.6983V32.24C89.6983 33.62 89.9783 34.64 90.5383 35.3C91.0983 35.94 91.9683 36.26 93.1483 36.26C94.4683 36.26 95.5283 35.83 96.3283 34.97C97.1283 34.11 97.5283 32.96 97.5283 31.52V22.94H99.9583V38H97.5883V34.61H97.9783C97.5583 35.77 96.8783 36.67 95.9383 37.31C95.0183 37.95 93.9283 38.27 92.6683 38.27ZM110.013 38.27C108.533 38.27 107.403 37.85 106.623 37.01C105.843 36.15 105.453 34.86 105.453 33.14V24.83H102.513V22.94H105.453V18.83L107.883 18.14V22.94H112.203V24.83H107.883V32.87C107.883 34.07 108.083 34.93 108.483 35.45C108.903 35.95 109.523 36.2 110.343 36.2C110.723 36.2 111.063 36.17 111.363 36.11C111.663 36.03 111.933 35.94 112.173 35.84V37.88C111.893 38 111.553 38.09 111.153 38.15C110.773 38.23 110.393 38.27 110.013 38.27ZM121.195 38.27C119.755 38.27 118.495 37.96 117.415 37.34C116.355 36.7 115.535 35.8 114.955 34.64C114.375 33.46 114.085 32.07 114.085 30.47C114.085 28.85 114.375 27.46 114.955 26.3C115.535 25.14 116.355 24.25 117.415 23.63C118.495 22.99 119.755 22.67 121.195 22.67C122.655 22.67 123.915 22.99 124.975 23.63C126.055 24.25 126.885 25.14 127.465 26.3C128.065 27.46 128.365 28.85 128.365 30.47C128.365 32.07 128.065 33.46 127.465 34.64C126.885 35.8 126.055 36.7 124.975 37.34C123.915 37.96 122.655 38.27 121.195 38.27ZM121.195 36.29C122.635 36.29 123.775 35.8 124.615 34.82C125.455 33.82 125.875 32.37 125.875 30.47C125.875 28.55 125.445 27.1 124.585 26.12C123.745 25.12 122.615 24.62 121.195 24.62C119.775 24.62 118.645 25.12 117.805 26.12C116.965 27.1 116.545 28.55 116.545 30.47C116.545 32.37 116.965 33.82 117.805 34.82C118.645 35.8 119.775 36.29 121.195 36.29Z" fill="#303030"/>
    <path d="M136.563 38V21.32H130.143V16.85H148.533V21.32H142.113V38H136.563ZM154.191 38.33C152.871 38.33 151.711 38.02 150.711 37.4C149.711 36.76 148.921 35.84 148.341 34.64C147.781 33.44 147.501 32.02 147.501 30.38C147.501 28.72 147.781 27.3 148.341 26.12C148.921 24.92 149.711 24.01 150.711 23.39C151.711 22.75 152.871 22.43 154.191 22.43C155.371 22.43 156.431 22.71 157.371 23.27C158.331 23.83 158.961 24.56 159.261 25.46H158.961L159.291 22.76H164.421C164.361 23.44 164.301 24.13 164.241 24.83C164.201 25.53 164.181 26.22 164.181 26.9V38H158.901L158.841 35.42H159.201C158.901 36.3 158.271 37.01 157.311 37.55C156.371 38.07 155.331 38.33 154.191 38.33ZM155.901 34.37C156.801 34.37 157.531 34.06 158.091 33.44C158.651 32.8 158.931 31.78 158.931 30.38C158.931 28.98 158.651 27.97 158.091 27.35C157.531 26.71 156.801 26.39 155.901 26.39C155.001 26.39 154.271 26.71 153.711 27.35C153.151 27.97 152.871 28.98 152.871 30.38C152.871 31.78 153.141 32.8 153.681 33.44C154.241 34.06 154.981 34.37 155.901 34.37ZM167.498 38V15.92H172.838V38H167.498ZM181.99 38.33C180.57 38.33 179.28 38.19 178.12 37.91C176.98 37.61 176.01 37.21 175.21 36.71L176.5 33.23C177.28 33.67 178.15 34.03 179.11 34.31C180.09 34.59 181.06 34.73 182.02 34.73C182.78 34.73 183.33 34.62 183.67 34.4C184.03 34.16 184.21 33.85 184.21 33.47C184.21 33.17 184.1 32.93 183.88 32.75C183.66 32.57 183.33 32.44 182.89 32.36L179.65 31.79C178.37 31.55 177.37 31.08 176.65 30.38C175.95 29.66 175.6 28.73 175.6 27.59C175.6 26.55 175.88 25.65 176.44 24.89C177 24.11 177.8 23.51 178.84 23.09C179.88 22.65 181.11 22.43 182.53 22.43C183.69 22.43 184.79 22.56 185.83 22.82C186.89 23.08 187.81 23.49 188.59 24.05L187.21 27.44C186.59 27.02 185.86 26.68 185.02 26.42C184.2 26.14 183.43 26 182.71 26C181.85 26 181.24 26.13 180.88 26.39C180.52 26.63 180.34 26.93 180.34 27.29C180.34 27.57 180.44 27.81 180.64 28.01C180.84 28.19 181.16 28.32 181.6 28.4L184.84 28.97C186.16 29.19 187.17 29.65 187.87 30.35C188.59 31.03 188.95 31.96 188.95 33.14C188.95 34.24 188.65 35.18 188.05 35.96C187.47 36.72 186.66 37.31 185.62 37.73C184.58 38.13 183.37 38.33 181.99 38.33ZM191.316 38V22.76H196.656V38H191.316ZM191.196 20.6V15.8H196.806V20.6H191.196Z" fill="#3570F2"/>
    <path d="M50.7118 31.0031C53.4565 29.4741 53.4565 25.5259 50.7118 23.9969L20.2115 7.00543C17.5387 5.5164 14.25 7.44887 14.25 10.5085L14.25 44.4915C14.25 47.5511 17.5387 49.4836 20.2115 47.9946L50.7118 31.0031Z" fill="#2E61D0"/>
    <path d="M22.3664 33.5891C20.4 32.4231 20.4 29.5769 22.3664 28.4109L41.2048 17.2406C43.2113 16.0509 45.75 17.497 45.75 19.8297L45.75 42.1703C45.75 44.503 43.2113 45.9491 41.2048 44.7594L22.3664 33.5891Z" fill="#5B8EFE"/>
</svg>
